<svg xmlns="http://www.w3.org/2000/svg" width="16" height="16" viewBox="0 0 512 512">
  <g fill="#1d558c">
    <circle cx="160" cy="128" r="32"/>
    <path d="M381.313 311.125c-5.938-8.906-20.688-8.906-26.625 0l-32 48c-3.266 4.906-3.578 11.22-.797 16.422C324.673 380.75 330.095 384 336 384h16v32c0 8.836 7.156 16 16 16 8.844 0 16-7.164 16-16v-32h16c5.906 0 11.328-3.25 14.11-8.453 2.78-5.203 2.468-11.516-.798-16.422l-32-48z"/>
    <path d="M480 0H32C14.328 0 0 14.328 0 32v320c0 17.672 14.328 32 32 32h192.945c7.992 71.887 69.062 128 143.055 128 79.406 0 144-64.602 144-144V32c0-17.672-14.328-32-32-32zM202.406 211.852c-5.64-4.836-13.875-5.148-19.875-.758L64 298.02V64h384v176s-63.47-66.74-83.5-89.992c-3.12-3.622-7.484-5.938-12.266-6.008-4.594-.102-9.344 1.992-12.422 5.64l-88.5 104.118-48.906-41.906zM478.726 384c-7.78 54.258-54.312 96-110.726 96s-102.945-41.742-110.727-96c-.75-5.238-1.273-10.555-1.273-16 0-61.855 50.14-112 112-112s112 50.145 112 112c0 5.445-.523 10.762-1.273 16z"/>
  </g>
</svg>
